<?xml version="1.0" encoding="utf-8"?>
<!-- Generator: Adobe Illustrator 18.0.0, SVG Export Plug-In . SVG Version: 6.00 Build 0)  -->
<!DOCTYPE svg PUBLIC "-//W3C//DTD SVG 1.1//EN" "http://www.w3.org/Graphics/SVG/1.1/DTD/svg11.dtd">
<svg version="1.1" id="Layer_1" xmlns="http://www.w3.org/2000/svg" xmlns:xlink="http://www.w3.org/1999/xlink" x="0px" y="0px"
	 viewBox="0 0 64 64" enable-background="new 0 0 64 64" xml:space="preserve">
<g>
	<path d="M32,19c-7.2,0-13,5.8-13,13s5.8,13,13,13s13-5.8,13-13S39.2,19,32,19z M32,41c-5,0-9-4-9-9s4-9,9-9s9,4,9,9S37,41,32,41z"
		/>
	<path d="M64,39V25h-8c-0.5-1.7-1.2-3.4-2.1-5l5.7-5.7l-9.9-9.9L44,10.1c-1.6-0.9-3.3-1.6-5-2.1V0H25v8c-1.7,0.5-3.4,1.2-5,2.1
		l-5.7-5.7l-9.9,9.9l5.7,5.7c-0.9,1.6-1.6,3.3-2.1,5H0v14h8c0.5,1.7,1.2,3.4,2.1,5l-5.7,5.7l9.9,9.9l5.7-5.7c1.6,0.9,3.3,1.6,5,2.1
		v8h14v-8c1.7-0.5,3.4-1.2,5-2.1l5.7,5.7l9.9-9.9L53.9,44c0.9-1.6,1.6-3.3,2.1-5H64z M53.9,49.7l-4.2,4.2l-5.1-5.1l-1.4,0.9
		c-2.1,1.3-4.3,2.2-6.7,2.8L35,52.8V60h-6v-7.2l-1.6-0.3c-2.4-0.5-4.6-1.5-6.7-2.8l-1.4-0.9l-5.1,5.1l-4.2-4.2l5.1-5.1l-0.9-1.4
		c-1.3-2.1-2.2-4.3-2.8-6.7L11.2,35H4v-6h7.2l0.3-1.6c0.5-2.4,1.5-4.6,2.8-6.7l0.9-1.4l-5.1-5.1l4.2-4.2l5.1,5.1l1.4-0.9
		c2.1-1.3,4.3-2.2,6.7-2.8l1.6-0.3V4h6v7.2l1.6,0.3c2.4,0.5,4.6,1.5,6.7,2.8l1.4,0.9l5.1-5.1l4.2,4.2l-5.1,5.1l0.9,1.4
		c1.3,2.1,2.2,4.3,2.8,6.7l0.3,1.6H60v6h-7.2l-0.3,1.6c-0.5,2.4-1.5,4.6-2.8,6.7l-0.9,1.4L53.9,49.7z"/>
</g>
</svg>
