<?xml version="1.0" encoding="utf-8"?>
<!-- Generator: Adobe Illustrator 16.0.0, SVG Export Plug-In . SVG Version: 6.00 Build 0)  -->
<!DOCTYPE svg PUBLIC "-//W3C//DTD SVG 1.0//EN" "http://www.w3.org/TR/2001/REC-SVG-20010904/DTD/svg10.dtd">
<svg version="1.0" id="Layer_1" xmlns="http://www.w3.org/2000/svg" xmlns:xlink="http://www.w3.org/1999/xlink" x="0px" y="0px"
	 width="254px" height="233px" viewBox="0 0 254 233" enable-background="new 0 0 254 233" xml:space="preserve">
<path fill="#E0DCCD" d="M237.836,82.891c-0.281-0.439-6.251-9.5-18.732-9.871c8.021-9.62,6.373-22.983,3.896-28.711
	c-0.343-0.791-1.036-1.305-1.857-1.369c-1.478-0.112-2.232,1.01-3.553,3.066c-1.811,2.836-4.84,7.582-8.826,8.107
	c-2.176,0.293-4.576-0.752-7.13-3.087c-22.28-20.371-49.606-29.071-79.019-25.175c-25.106,3.332-50.984,16.17-70.998,35.224
	c-15.984,15.219-27.156,33.31-31.457,50.938c-4.672,19.16-1.163,36.756,10.145,50.965l-5.839,15.393
	c-0.242,0.639-0.142,1.357,0.269,1.906c20.275,27.136,47.772,37.24,75.188,37.24c19.207-0.002,38.374-4.961,54.984-12.5
	c23.803-10.805,44.532-27.463,58.382-46.914c15.077-21.188,20.664-43.545,16.156-64.661c-0.155-0.993,0.963-5.39,3.229-7.198
	c0.874-0.697,1.721-0.828,2.733-0.423c0.809,0.323,1.729,0.088,2.282-0.582C238.247,84.573,238.307,83.622,237.836,82.891z"/>
<polygon fill="#56330D" points="38.827,179.167 82.161,201.834 58.161,185.167 102.161,193.167 62.161,181.167 113.381,178.5 
	62.827,176.5 118.161,169.834 68.151,169.834 116.161,160.604 63.494,163.834 102.161,151.834 61.494,157.167 91.494,139.834 
	58.161,152.5 86.161,122.383 54.827,149.167 74.161,117.167 49.678,143.727 46.877,150.395 43.061,153.665 38.022,153.716 
	37.379,146.014 41.809,122.637 37.106,141.243 37.494,111.167 34.827,138.5 30.827,123.167 33.494,149.834 38.827,161.834 
	36.367,175.834 "/>
<polygon fill="#D18D4A" points="207.462,61.927 174.584,44.892 188.508,55.667 129.055,51.463 188.889,61 132.221,61.927 
	189.555,65 143.555,73 187.122,69 159.555,88.333 188.221,74.333 170.889,94.333 190.889,77.667 181.555,107 194.221,81 
	190.889,117 197.555,85 199.555,119.23 202.221,89 207.462,114.5 206.221,91.667 213.555,98.408 210.221,87.667 221.555,95 
	213.555,83.667 223.555,89.667 213.898,80.115 223.555,80.115 206.889,79 219.555,56.333 210.221,65 213.555,58.333 "/>
<path opacity="0.7" fill="#7F450B" enable-background="new    " d="M184.357,53.034c-42.387-18.071-89.435-1.953-119.5,19.314
	c-0.025,0.019-0.051,0.037-0.077,0.057c-24.603,19.458-28.813,33.244-32.885,46.573c-0.262,0.86-0.524,1.72-0.792,2.578
	c-0.264,0.854,0.294,1.721,1.25,1.939c0.954,0.221,1.944-0.288,2.21-1.143c0.269-0.863,0.532-1.728,0.795-2.588
	c4.11-13.46,7.995-26.176,31.745-44.972c29.453-20.82,75.564-36.584,116.706-18.43c0.026,0.012,0.055,0.023,0.08,0.034l0.002,0.001
	h0.004c0.377,0.151,0.791,0.172,1.172,0.083L184.357,53.034z"/>
<path opacity="0.7" fill="#7F450B" enable-background="new    " d="M63.591,190.126c42.401,4.392,88.806-10.324,118.265-25.666
	c0.023-0.015,0.049-0.026,0.074-0.041c24.066-13.668,27.998-21.669,31.797-29.405c0.246-0.5,0.49-0.996,0.738-1.496
	c0.248-0.496-0.322-0.896-1.275-0.893c-0.948,0.001-1.924,0.402-2.172,0.898c-0.25,0.502-0.496,1.004-0.742,1.504
	c-3.838,7.812-7.463,15.19-30.694,28.392c-28.854,15.022-74.341,29.429-115.504,24.834c-0.028-0.004-0.056-0.008-0.081-0.01h-0.002
	H63.99c-0.377-0.033-0.788,0.008-1.165,0.104L63.591,190.126z"/>
<path opacity="0.7" fill="#7F450B" enable-background="new    " d="M38.977,172.348c52.013,5.916,108.785-12.43,144.775-31.707
	c0.031-0.016,0.061-0.033,0.091-0.051c29.396-17.189,34.154-27.333,38.75-37.141c0.296-0.634,0.593-1.263,0.892-1.897
	c0.305-0.627-0.399-1.141-1.567-1.144c-1.165-0.006-2.354,0.497-2.656,1.126c-0.303,0.636-0.601,1.271-0.897,1.905
	c-4.643,9.904-9.026,19.259-37.404,35.859c-35.256,18.877-90.902,36.835-141.399,30.669c-0.035-0.005-0.069-0.011-0.099-0.013
	h-0.003H39.45c-0.463-0.045-0.966,0.004-1.427,0.124L38.977,172.348z"/>
<g id="_x31_8-fruit-icons-Coconut-line-art_2_" opacity="0.4">
	<path fill="#6B3E15" d="M210.053,93.731c-2.789,2.306-2.408,7.588-1.972,9.58c3.606,16.556-4.165,31.279-16.343,48.041
		c-11.363,15.64-24.653,25.812-44.236,34.517c-32.667,14.521-71.02,19.637-99.004-16.235l1.175-9.105
		c0.215-0.559,2.804-3.537,2.417-3.995c-9.346-11.054-15.122-22.306-11.35-37.451c3.482-13.989,12.588-28.393,25.635-40.559
		c44.24-41.253,94.354-33.206,122.193-8.276c2.93,2.626,5.873,3.766,8.754,3.397c4.468-0.577,2.455-3.375,4.277-6.112
		c1.215,5.295,3.941,4.537-2.817,10.144C160.204,55.78,110.546,67.61,80.888,87.439c-0.025,0.017,1.545,3.74,1.521,3.759
		c-24.406,18.359-24.378,38.36-29.097,51.888c-0.304,0.87-0.607,1.74-0.916,2.613c-0.306,0.863,13.381-28.102,36.942-45.836
		c29.051-19.41,73.4-32.341,110.809-10.453c0.022,0.016,0.049,0.028,0.071,0.042l0.003,0.001l0,0
		c0.348,0.184,0.734,0.235,1.098,0.173c7.521-1.272,7.818-3.814,10.426-1.527C211.199,88.324,210.545,93.325,210.053,93.731z"/>
</g>
<g id="_x31_8-fruit-icons-Coconut-line-art_1_" opacity="0.4">
	<path fill="#D18D4A" d="M225.5,88.333c-3.301,2.728-2.85,8.978-2.333,11.333c4.269,19.586-4.927,37.004-19.333,56.833
		c-13.443,18.5-29.166,30.535-52.334,40.833c-38.646,17.177-84.019,23.23-117.125-19.208l1.391-10.774
		c0.255-0.658,3.317-4.185,2.859-4.726c-11.057-13.077-17.89-26.388-13.428-44.308c4.12-16.548,14.893-33.588,30.327-47.981
		c52.337-48.805,111.623-39.284,144.561-9.791c3.465,3.106,6.946,4.455,10.354,4.019c5.285-0.682,2.903-3.993,5.061-7.231
		c1.438,6.264,4.665,5.367-3.333,12C166.527,43.434,107.78,57.428,72.694,80.887c-0.029,0.02,1.828,4.425,1.799,4.447
		c-28.873,21.719-28.84,45.381-34.423,61.385c-0.359,1.029-0.719,2.059-1.084,3.092c-0.361,1.021,15.83-33.245,43.704-54.227
		c34.368-22.963,86.835-38.26,131.089-12.366c0.029,0.018,0.06,0.033,0.087,0.049l0.002,0.002h0.002
		c0.409,0.217,0.868,0.278,1.297,0.205c8.896-1.505,9.251-4.513,12.333-1.807C226.855,81.936,226.082,87.853,225.5,88.333z"/>
</g>
<path fill="#231F20" d="M237.836,82.891c-0.281-0.439-6.251-9.5-18.732-9.871c8.021-9.62,6.373-22.983,3.896-28.711
	c-0.343-0.791-1.036-1.305-1.857-1.369c-1.478-0.112-2.232,1.01-3.553,3.066c-1.811,2.836-4.84,7.582-8.826,8.107
	c-2.176,0.293-4.576-0.752-7.13-3.087c-22.28-20.371-49.606-29.071-79.019-25.175c-25.106,3.332-50.984,16.17-70.998,35.224
	c-15.984,15.219-27.156,33.31-31.457,50.938c-4.672,19.16-1.163,36.756,10.145,50.965l-5.839,15.393
	c-0.242,0.639-0.142,1.357,0.269,1.906c20.275,27.136,47.772,37.24,75.188,37.24c19.207-0.002,38.374-4.961,54.984-12.5
	c23.803-10.805,44.532-27.463,58.382-46.914c15.077-21.188,20.664-43.545,16.156-64.661c-0.155-0.993,0.963-5.39,3.229-7.198
	c0.874-0.697,1.721-0.828,2.733-0.423c0.809,0.323,1.729,0.088,2.282-0.582C238.247,84.573,238.307,83.622,237.836,82.891z
	 M230.002,83.268c-3.301,2.785-4.986,8.598-4.471,11.004c4.269,19.996-1.096,41.268-15.502,61.513
	c-13.443,18.888-33.606,35.079-56.774,45.593c-38.646,17.538-91.55,20.709-124.657-22.619l5.855-15.437
	c0.255-0.672,0.129-1.432-0.329-1.984c-11.056-13.352-14.538-30.079-10.076-48.374c4.12-16.896,14.892-34.293,30.327-48.988
	c52.337-49.828,111.623-40.108,144.561-9.996c3.465,3.172,6.946,4.549,10.354,4.103c5.286-0.696,8.897-5.649,11.054-8.954
	c1.438,6.395,1.155,17.1-6.843,23.873c-17.904-10.374-18.425-6.361-0.87,4.126c0.028,0.019,0.059,0.034,0.086,0.05l0.002,0.002
	h0.002c0.409,0.222,0.868,0.285,1.297,0.209c8.896-1.537,14.744,1.967,17.826,4.73C231.2,82.393,230.584,82.777,230.002,83.268z"/>
<path fill="#231F20" d="M79.239,86.485c-0.029,0.021-0.061,0.043-0.09,0.065c-28.873,22.175-34.645,39.07-40.228,55.41
	c-0.359,1.052-0.719,2.103-1.084,3.156c-0.362,1.043,0.189,2.183,1.234,2.545c1.041,0.36,2.183-0.188,2.545-1.233
	c0.367-1.06,0.729-2.117,1.09-3.174c5.636-16.496,10.961-32.078,38.835-53.5C100.335,76.933,98.627,73.25,79.239,86.485z"/>
</svg>
