<?xml version="1.0" encoding="UTF-8" standalone="no"?>
<!-- Generator: Adobe Illustrator 19.0.0, SVG Export Plug-In . SVG Version: 6.00 Build 0)  -->

<svg
   xmlns:dc="http://purl.org/dc/elements/1.1/"
   xmlns:cc="http://creativecommons.org/ns#"
   xmlns:rdf="http://www.w3.org/1999/02/22-rdf-syntax-ns#"
   xmlns:svg="http://www.w3.org/2000/svg"
   xmlns="http://www.w3.org/2000/svg"
   xmlns:sodipodi="http://sodipodi.sourceforge.net/DTD/sodipodi-0.dtd"
   xmlns:inkscape="http://www.inkscape.org/namespaces/inkscape"
   version="1.1"
   id="Capa_1"
   x="0px"
   y="0px"
   viewBox="0 0 463 463"
   style="enable-background:new 0 0 463 463;"
   xml:space="preserve"
   sodipodi:docname="drilling-machine.svg"
   inkscape:version="0.92.2 5c3e80d, 2017-08-06"><metadata
     id="metadata39"><rdf:RDF><cc:Work
         rdf:about=""><dc:format>image/svg+xml</dc:format><dc:type
           rdf:resource="http://purl.org/dc/dcmitype/StillImage" /></cc:Work></rdf:RDF></metadata><defs
     id="defs37" /><sodipodi:namedview
     pagecolor="#ffffff"
     bordercolor="#666666"
     borderopacity="1"
     objecttolerance="10"
     gridtolerance="10"
     guidetolerance="10"
     inkscape:pageopacity="0"
     inkscape:pageshadow="2"
     inkscape:window-width="1073"
     inkscape:window-height="751"
     id="namedview35"
     showgrid="false"
     inkscape:zoom="1"
     inkscape:cx="220.8599"
     inkscape:cy="236.69518"
     inkscape:window-x="0"
     inkscape:window-y="0"
     inkscape:window-maximized="0"
     inkscape:current-layer="Capa_1" /><path
     d="M 346.60677,0 H 121.54956 C 115.72198,0 111,4.7233883 111,10.549557 V 55.561 c 0,12.022276 9.78014,21.802418 21.80242,21.802418 h 23.20902 v 23.912332 h -11.95616 c -5.82758,0 -10.54956,4.72339 -10.54956,10.54955 v 56.26431 c 0,0.47543 0.0422,0.93961 0.10268,1.39957 0.0141,0.1055 0.031,0.20959 0.0478,0.31508 0.0731,0.4473 0.16739,0.88757 0.29539,1.31518 0.003,0.0112 0.006,0.0239 0.01,0.0352 0.13926,0.45714 0.31368,0.89741 0.5106,1.32643 0.0366,0.0788 0.0745,0.15613 0.11253,0.23349 0.20255,0.41355 0.4248,0.81724 0.67658,1.19843 0.006,0.01 0.01,0.0197 0.0155,0.0281 l 0.0141,0.0211 c 0.01,0.0155 0.0197,0.0295 0.0295,0.045 l 44.96924,67.45105 c 1.95659,2.93419 5.24946,4.69807 8.77723,4.69807 h 11.95617 l 2.05784,217.00484 c 0.001,0.2034 64.7406,0.51552 64.74007,0.34649 L 267.135,246.15631 h 11.95757 c 3.52777,0 6.82205,-1.76248 8.77723,-4.69807 l 44.96644,-67.45105 c 0.01,-0.0141 0.0197,-0.0295 0.0295,-0.045 l 0.0141,-0.0211 c 0.006,-0.008 0.01,-0.0197 0.0155,-0.0281 0.25319,-0.38119 0.47544,-0.78488 0.67799,-1.19983 0.038,-0.0774 0.0759,-0.15332 0.11112,-0.23209 0.19692,-0.42902 0.37275,-0.87069 0.5106,-1.32784 l 0.008,-0.0338 c 0.128,-0.42761 0.22224,-0.86788 0.29539,-1.31658 0.0169,-0.10409 0.0337,-0.20818 0.0478,-0.31368 0.0605,-0.45855 0.10268,-0.92414 0.10268,-1.39957 v -56.2643 c 0,-5.82616 -4.72198,-10.54955 -10.54955,-10.54955 H 312.14489 V 77.363418 h 23.20902 c 12.02228,0 21.80242,-9.780142 21.80242,-21.802418 V 10.549557 C 357.15633,4.7233883 352.43435,0 346.60677,0 Z M 246.03433,432.88349 222.122,450.81774 v -29.89041 l 23.91233,-17.93425 z m 0,-56.2643 -23.91233,17.93424 v -29.89041 l 23.91233,-17.93425 z m 0,-56.26431 -23.91233,17.93425 v -29.89041 l 23.91233,-17.93425 z m 0,-56.2643 -23.91233,17.93424 v -35.86849 h 23.91233 z m 27.41056,-39.03336 H 194.71285 L 163.76748,178.63917 H 304.38885 Z M 313.5515,157.54005 H 154.60484 V 122.37486 H 313.5515 Z m -22.50573,-56.2643 H 177.11056 V 77.363418 H 291.04577 Z M 336.05722,55.561 c 0,0.388224 -0.31649,0.703304 -0.70331,0.703304 H 132.80242 c -0.38682,0 -0.70331,-0.31508 -0.70331,-0.703304 V 21.099114 h 203.95811 z"
     id="path2"
     inkscape:connector-curvature="0"
     sodipodi:nodetypes="sssssccssscccccccscccscsscscccscccccccsssccsssscccccccccccccccccccccccccccccccccccssssccs"
     style="stroke-width:1.40660763" /><g
     id="g4" /><g
     id="g6" /><g
     id="g8" /><g
     id="g10" /><g
     id="g12" /><g
     id="g14" /><g
     id="g16" /><g
     id="g18" /><g
     id="g20" /><g
     id="g22" /><g
     id="g24" /><g
     id="g26" /><g
     id="g28" /><g
     id="g30" /><g
     id="g32" /></svg>