<?xml version="1.0" encoding="utf-8"?>
<!-- Generator: Adobe Illustrator 18.0.0, SVG Export Plug-In . SVG Version: 6.00 Build 0)  -->
<!DOCTYPE svg PUBLIC "-//W3C//DTD SVG 1.1//EN" "http://www.w3.org/Graphics/SVG/1.1/DTD/svg11.dtd">
<svg version="1.1" id="Layer_1" xmlns="http://www.w3.org/2000/svg" xmlns:xlink="http://www.w3.org/1999/xlink" x="0px" y="0px"
	 viewBox="0 0 64 64" enable-background="new 0 0 64 64" xml:space="preserve">
<path d="M63.1,24.7C62.3,23.6,61.2,23,60,23h-3v-5.8c0-2.2-1.8-4-4-4l-21.6,0l-3.2-4.7l-0.2-0.3C27.1,7.4,26.1,7,25.1,7H4
	c-2.2,0-4,1.8-4,4v46h49.5c1.6,0,3.1-1,3.7-2.5l10.5-25.6l0-0.1C64.2,27.5,64,26,63.1,24.7z M4,11h21l3.2,4.7l0.2,0.3
	c0.8,0.8,1.8,1.2,2.8,1.2H53V23H15c-1.9,0-3.3,1.6-3.7,2.9L4,44.4L4,11z M49.5,53H4.9L15,27.3c0-0.1,0.1-0.3,0.2-0.3h44.6
	c0.1,0.1,0.2,0.4,0.2,0.5L49.5,53z"/>
</svg>
