<?xml version="1.0" encoding="utf-8"?>
<!-- Svg Vector Icons : http://www.onlinewebfonts.com/icon -->
<!DOCTYPE svg PUBLIC "-//W3C//DTD SVG 1.1//EN" "http://www.w3.org/Graphics/SVG/1.1/DTD/svg11.dtd">
<svg version="1.1" xmlns="http://www.w3.org/2000/svg" xmlns:xlink="http://www.w3.org/1999/xlink" x="0px" y="0px" viewBox="0 0 1000 1000" enable-background="new 0 0 1000 1000" xml:space="preserve">
<metadata> Svg Vector Icons : http://www.onlinewebfonts.com/icon </metadata>
<g><path d="M61.6,10h154.7c28.5,0,51.6,23.1,51.6,51.6v154.8c0,28.5-23.1,51.6-51.6,51.6H61.6c-28.5,0-51.6-23.1-51.6-51.6V61.6C10,33.1,33.1,10,61.6,10z"/><path d="M422.6,10h154.7c28.5,0,51.6,23.1,51.6,51.6v154.8c0,28.5-23.1,51.6-51.6,51.6H422.6c-28.5,0-51.6-23.1-51.6-51.6V61.6C371.1,33.1,394.2,10,422.6,10z"/><path d="M783.7,10h154.7c28.5,0,51.6,23.1,51.6,51.6v154.8c0,28.5-23.1,51.6-51.6,51.6H783.7c-28.5,0-51.6-23.1-51.6-51.6V61.6C732.1,33.1,755.2,10,783.7,10z"/><path d="M783.7,371.1h154.7c28.5,0,51.6,23.1,51.6,51.6v154.7c0,28.5-23.1,51.6-51.6,51.6H783.7c-28.5,0-51.6-23.1-51.6-51.6V422.6C732.1,394.1,755.2,371.1,783.7,371.1z"/><path d="M422.6,371.1h154.7c28.5,0,51.6,23.1,51.6,51.6v154.7c0,28.5-23.1,51.6-51.6,51.6H422.6c-28.5,0-51.6-23.1-51.6-51.6V422.6C371.1,394.1,394.2,371.1,422.6,371.1z"/><path d="M61.6,371.1h154.7c28.5,0,51.6,23.1,51.6,51.6v154.7c0,28.5-23.1,51.6-51.6,51.6H61.6C33.1,629,10,605.9,10,577.4V422.6C10,394.1,33.1,371.1,61.6,371.1z"/><path d="M61.6,732.1h154.7c28.5,0,51.6,23.1,51.6,51.6v154.7c0,28.4-23.1,51.6-51.6,51.6H61.6C33.1,990,10,966.9,10,938.4V783.7C10,755.2,33.1,732.1,61.6,732.1z"/><path d="M422.6,732.1h154.7c28.5,0,51.6,23.1,51.6,51.6v154.7c0,28.4-23.1,51.6-51.6,51.6H422.6c-28.5,0-51.6-23.1-51.6-51.6V783.7C371.1,755.2,394.2,732.1,422.6,732.1z"/><path d="M783.7,732.1h154.7c28.5,0,51.6,23.1,51.6,51.6v154.7c0,28.4-23.1,51.6-51.6,51.6H783.7c-28.5,0-51.6-23.1-51.6-51.6V783.7C732.1,755.2,755.2,732.1,783.7,732.1z"/></g>
</svg>