<?xml version="1.0" encoding="utf-8"?>
<!-- Generator: Adobe Illustrator 18.0.0, SVG Export Plug-In . SVG Version: 6.00 Build 0)  -->
<!DOCTYPE svg PUBLIC "-//W3C//DTD SVG 1.1//EN" "http://www.w3.org/Graphics/SVG/1.1/DTD/svg11.dtd">
<svg version="1.1" id="Layer_1" xmlns="http://www.w3.org/2000/svg" xmlns:xlink="http://www.w3.org/1999/xlink" x="0px" y="0px"
	 viewBox="0 0 64 64" enable-background="new 0 0 64 64" xml:space="preserve">
<g>
	<g>
		<g id="XMLID_42_">
			<g>
				<g>
					<path d="M32,64C14.4,64,0,49.6,0,32S14.4,0,32,0s32,14.4,32,32S49.6,64,32,64z M32,4C16.6,4,4,16.6,4,32s12.6,28,28,28
						s28-12.6,28-28S47.4,4,32,4z"/>
				</g>
			</g>
		</g>
	</g>
	<g>
		<g>
			<g>
				<g>
					<path d="M26,28c-1.6,0-3.1-0.6-4.2-1.8C20.6,25.1,20,23.6,20,22s0.6-3.1,1.8-4.2c1.1-1.1,2.6-1.8,4.2-1.8s3.1,0.6,4.2,1.8
						c1.1,1.1,1.8,2.6,1.8,4.2s-0.6,3.1-1.8,4.2C29.1,27.4,27.6,28,26,28z M26,20c-0.5,0-1,0.2-1.4,0.6C24.2,21,24,21.5,24,22
						s0.2,1,0.6,1.4c0.8,0.8,2.1,0.8,2.8,0C27.8,23,28,22.5,28,22s-0.2-1-0.6-1.4C27,20.2,26.5,20,26,20z"/>
				</g>
			</g>
		</g>
		<g>
			<g>
				<g>
					<rect x="30" y="15" transform="matrix(0.7071 0.7071 -0.7071 0.7071 32 -13.2548)" width="4" height="33.9"/>
				</g>
			</g>
		</g>
		<g>
			<g>
				<g>
					<path d="M38,48c-1.6,0-3.1-0.6-4.2-1.8C32.6,45.1,32,43.6,32,42s0.6-3.1,1.8-4.2c1.1-1.1,2.6-1.8,4.2-1.8s3.1,0.6,4.2,1.8
						c1.1,1.1,1.8,2.6,1.8,4.2s-0.6,3.1-1.8,4.2C41.1,47.4,39.6,48,38,48z M38,40c-0.5,0-1,0.2-1.4,0.6C36.2,41,36,41.5,36,42
						s0.2,1,0.6,1.4c0.8,0.8,2.1,0.8,2.8,0C39.8,43,40,42.5,40,42s-0.2-1-0.6-1.4C39,40.2,38.5,40,38,40z"/>
				</g>
			</g>
		</g>
	</g>
</g>
</svg>
