<?xml version="1.0" encoding="UTF-8" standalone="no"?>
<svg
   xmlns:dc="http://purl.org/dc/elements/1.1/"
   xmlns:cc="http://creativecommons.org/ns#"
   xmlns:rdf="http://www.w3.org/1999/02/22-rdf-syntax-ns#"
   xmlns:svg="http://www.w3.org/2000/svg"
   xmlns="http://www.w3.org/2000/svg"
   xmlns:sodipodi="http://sodipodi.sourceforge.net/DTD/sodipodi-0.dtd"
   xmlns:inkscape="http://www.inkscape.org/namespaces/inkscape"
   viewBox="0 0 448 512"
   version="1.1"
   id="svg4"
   sodipodi:docname="z-origin.svg"
   inkscape:version="0.92.2 5c3e80d, 2017-08-06">
  <metadata
     id="metadata10">
    <rdf:RDF>
      <cc:Work
         rdf:about="">
        <dc:format>image/svg+xml</dc:format>
        <dc:type
           rdf:resource="http://purl.org/dc/dcmitype/StillImage" />
        <dc:title></dc:title>
      </cc:Work>
    </rdf:RDF>
  </metadata>
  <defs
     id="defs8" />
  <sodipodi:namedview
     pagecolor="#ffffff"
     bordercolor="#666666"
     borderopacity="1"
     objecttolerance="10"
     gridtolerance="10"
     guidetolerance="10"
     inkscape:pageopacity="0"
     inkscape:pageshadow="2"
     inkscape:window-width="1202"
     inkscape:window-height="754"
     id="namedview6"
     showgrid="false"
     inkscape:zoom="0.4609375"
     inkscape:cx="224"
     inkscape:cy="256"
     inkscape:window-x="0"
     inkscape:window-y="0"
     inkscape:window-maximized="0"
     inkscape:current-layer="svg4" />
  <path
     d="M 240.97056,148.51977 328.6518,60.838528 c 4.66691,-4.666904 4.66691,-12.303658 0,-16.970562 L 300.36753,15.583694 c -4.6669,-4.666904 -12.30366,-4.666904 -16.97056,0 L 224,74.980664 164.60303,15.583694 c -4.6669,-4.666904 -12.30366,-4.666904 -16.97056,0 L 119.3482,43.867966 c -4.66691,4.666904 -4.66691,12.303658 0,16.970562 l 87.68124,87.681242 c 9.40452,9.40452 24.5366,9.40452 33.94112,0 z M 164.60303,496.41631 224,437.01934 l 59.39697,59.39697 c 4.6669,4.6669 12.30366,4.6669 16.97056,0 l 28.28427,-28.28428 c 4.66691,-4.6669 4.66691,-12.30365 0,-16.97056 l -87.68124,-87.68124 c -9.40452,-9.40452 -24.5366,-9.40452 -33.94112,0 l -87.68124,87.68124 c -4.66691,4.66691 -4.66691,12.30366 0,16.97056 l 28.28427,28.28428 c 4.6669,4.6669 12.30366,4.6669 16.97056,0 z"
     id="path2"
     inkscape:connector-curvature="0"
     sodipodi:nodetypes="ssssscssssssscsscsssscss" />
</svg>
